# Blender v2.78 (sub 0) OBJ File: ''
# www.blender.org
mtllib textures.mtl
o Cube_Cube.001
v 0.000000 -0.000000 1.000000
v 0.000000 1.000000 1.000000
v 0.000000 1.000000 0.000000
v 0.000000 0.000000 0.000000
v 1.000000 1.000000 0.000000
v 1.000000 0.000000 0.000000
v 1.000000 1.000000 1.000000
v 1.000000 -0.000000 1.000000
v 0.000000 2.000000 0.000000
v 1.000000 2.000000 0.000000
v 0.000000 2.000000 1.000000
v 1.000000 2.000000 1.000000
vn -1.0000 0.0000 0.0000
vn 0.0000 0.0000 -1.0000
vn 1.0000 0.0000 0.0000
vn 0.0000 -1.0000 -0.0000
vn 0.7071 0.0000 -0.7071
vn -0.7071 0.0000 -0.7071
vn 0.0000 1.0000 0.0000
vn -0.7071 -0.0000 0.7071
vn 0.7071 -0.0000 0.7071
vn 0.0000 -0.0000 1.0000
usemtl multiwall
s 1
f 1//1 2//1 3//1 4//1
f 4//2 3//2 5//2 6//2
f 6//3 5//3 7//3 8//3
f 4//4 6//4 8//4 1//4
f 5//5 3//6 9//6 10//5
f 10//7 9//7 11//7 12//7
f 3//6 2//8 11//8 9//6
f 7//9 5//5 10//5 12//9
f 2//8 7//9 12//9 11//8
usemtl boilerfront
f 8//10 7//10 2//10 1//10
