# Blender v2.78 (sub 0) OBJ File: ''
# www.blender.org
mtllib textures.mtl
o Cube_Cube.003
v -0.9375 -1.000000 1.9375
v -0.932500 -0.000000 1.932500
v -0.932500 0.000000 -0.932500
v -0.9375 -1.000000 -0.9375
v 1.932500 0.000000 -0.932500
v 1.9375 -1.000000 -0.9375
v 1.932500 -0.000000 1.932500
v 1.9375 -1.000000 1.9375
v -0.715000 2.000000 -0.714999
v 1.715000 2.000000 -0.714999
v -0.715000 2.000000 1.715001
v 1.715000 2.000000 1.715001
vn -1.0000 -0.0000 0.0000
vn 0.0000 0.0000 -1.0000
vn 1.0000 -0.0000 0.0000
vn 0.0000 -0.0000 1.0000
vn 0.0000 -1.0000 -0.0000
vn 0.6989 0.1520 -0.6989
vn -0.6989 0.1520 -0.6989
vn 0.0000 1.0000 0.0000
vn -0.6989 0.1520 0.6989
vn 0.6989 0.1520 0.6989
usemtl multiwall
s 1
f 1//1 2//1 3//1 4//1
f 4//2 3//2 5//2 6//2
f 6//3 5//3 7//3 8//3
f 8//4 7//4 2//4 1//4
f 4//5 6//5 8//5 1//5
f 5//6 3//7 9//7 10//6
f 10//8 9//8 11//8 12//8
f 3//7 2//9 11//9 9//7
f 7//10 5//6 10//6 12//10
f 2//9 7//10 12//10 11//9
