# Blender v2.78 (sub 0) OBJ File: ''
# www.blender.org
mtllib textures.mtl
o Cube_Cube.005
v -0.925000 0.227924 -1.000000
v -0.465823 1.465823 -1.000000
v -0.465823 1.465824 -2.900000
v -0.925000 0.227924 -2.900000
v 0.500000 0.500000 -3.136970
v 0.500000 1.925000 -2.900000
v 1.465823 1.465824 -2.900000
v 1.925000 0.227924 -2.900000
v 1.925000 0.227924 -1.000000
v 1.465823 1.465823 -1.000000
v 1.465823 1.465823 0.900000
v 1.925000 0.227924 0.900000
v 1.465823 -1.000000 0.900000
v 1.250000 -0.250000 1.174427
v 0.500000 -0.250000 1.174427
v 0.500000 -1.000000 0.900000
v 0.500000 -1.000000 -1.000000
v 1.465823 -1.000000 -1.000000
v 0.500000 1.925000 -1.000000
v -0.465823 1.465823 0.900000
v 0.500000 1.925000 0.900000
v -0.250000 -0.250000 1.174427
v -0.465823 -1.000000 0.900000
v 1.250000 0.500000 1.174427
v 1.250000 1.250000 1.174427
v -0.465823 -1.000000 -1.000000
v -0.465823 -0.999999 -2.900000
v 0.500000 -1.000000 -2.900000
v 1.465823 -0.999999 -2.900000
v -0.925000 0.227924 0.900000
v 0.500000 1.250000 1.174427
v -0.250000 1.250000 1.174427
v -0.250000 0.500000 1.174427
v 0.500000 0.500000 1.174427
vt 1.0000 0.0000
vt 1.0000 1.0000
vt 0.0000 1.0000
vt 0.0000 0.0000
vt 0.0000 1.0000
vt 1.0000 1.0000
vt 1.0000 0.0000
vt 0.0000 0.0000
vt 1.0000 1.0000
vt 0.0000 1.0000
vt 0.0000 0.0000
vt 1.0000 0.0000
vt 0.9990 0.0010
vt 0.0010 0.0010
vt 0.0010 0.9990
vt 0.9990 0.9990
vt 1.0000 0.0000
vt 1.0000 1.0000
vt 0.0000 1.0000
vt 0.0000 0.0000
vt 0.0000 1.0000
vt 0.0000 0.0000
vt 1.0000 0.0000
vt 1.0000 1.0000
vt 0.9990 0.0010
vt 0.0010 0.0010
vt 0.0010 0.9990
vt 0.9990 0.0010
vt 0.0010 0.0010
vt 0.0010 0.9990
vt 0.9990 0.9990
vt 0.0010 0.9990
vt 0.9990 0.9990
vt 1.0000 0.0000
vt 1.0000 1.0000
vt 0.0000 1.0000
vt 1.0000 1.0000
vt 0.0000 1.0000
vt 0.0000 0.0000
vt 1.0000 0.0000
vt 1.0000 0.0000
vt 1.0000 1.0000
vt 0.0000 1.0000
vt 0.0000 0.0000
vt 1.0000 1.0000
vt 0.0000 1.0000
vt 0.0000 0.0000
vt 1.0000 1.0000
vt 0.0000 1.0000
vt 0.0000 0.0000
vt 1.0000 0.0000
vt 1.0000 1.0000
vt 1.0000 0.0000
vt 1.0000 1.0000
vt 0.0000 1.0000
vt 1.0000 0.0000
vt 0.0000 0.0000
vt 1.0000 1.0000
vt 0.0000 0.0000
vt 0.0000 1.0000
vt 1.0000 1.0000
vt 1.0000 0.0000
vt 0.0000 0.0000
vt 1.0000 0.0000
vt 0.0000 0.0000
vt 0.0000 0.0000
vt 1.0000 0.0000
vt 1.0000 1.0000
vt 0.0000 1.0000
vt 0.0000 1.0000
vt 0.0000 0.0000
vt 1.0000 0.0000
vt 0.9990 0.0010
vt 0.0010 0.0010
vt 0.0010 0.9990
vt 0.9990 0.0010
vt 0.0010 0.0010
vt 0.0010 0.9990
vt 0.9990 0.9990
vt 0.9990 0.0010
vt 0.0010 0.0010
vt 0.0010 0.9990
vt 0.9990 0.9990
vt 0.9990 0.0010
vt 0.0010 0.0010
vt 0.0010 0.9990
vt 0.9990 0.9990
vt 0.5000 0.5000
vt 0.5000 1.0000
vt 0.0000 1.0000
vt 0.0000 0.5000
vt 0.5000 0.0000
vt 0.0000 0.0000
vt 1.0000 -0.0000
vt 1.0000 0.5000
vt 1.0000 1.0000
vn -1.0000 -0.0013 0.0000
vn -0.9376 0.3478 0.0000
vn -0.0000 0.0175 -0.9998
vn -0.0000 0.1113 -0.9938
vn 0.1314 0.1103 -0.9852
vn 0.1063 -0.0112 -0.9943
vn 1.0000 -0.0013 0.0000
vn 0.9376 0.3478 0.0000
vn 0.1579 -0.2659 0.9510
vn 0.2676 -0.2053 0.9414
vn 0.0000 -0.3436 0.9391
vn -0.0000 -1.0000 -0.0000
vn -0.0000 1.0000 0.0000
vn -0.4294 0.9031 0.0000
vn -0.2676 -0.2053 0.9414
vn -0.1579 -0.2659 0.9510
vn 0.4947 0.0358 0.8684
vn 0.4711 -0.0215 0.8818
vn 0.3374 0.3258 0.8832
vn 0.3424 0.3210 0.8830
vn 0.4294 0.9031 0.0000
vn 0.9367 -0.3503 -0.0000
vn 0.0000 -0.1011 -0.9949
vn 0.0868 -0.1007 -0.9911
vn -0.0868 -0.1007 -0.9911
vn -0.1063 -0.0112 -0.9943
vn -0.1314 0.1103 -0.9852
vn -0.9367 -0.3503 -0.0000
vn 0.0000 0.5008 0.8656
vn -0.3374 0.3258 0.8832
vn -0.3424 0.3210 0.8830
vn -0.4711 -0.0215 0.8818
vn -0.4947 0.0358 0.8684
vn 0.0000 -0.0000 1.0000
usemtl multiwall
s 1
f 1/1/1 2/2/2 3/3/2 4/4/1
f 5/5/3 6/6/4 7/7/5 8/8/6
f 9/9/7 10/10/8 11/11/8 12/12/7
f 13/13/9 14/14/10 15/15/11 16/16/11
f 17/17/12 18/18/12 13/19/12 16/20/12
f 19/21/13 2/22/14 20/23/14 21/24/13
f 15/25/11 22/26/15 23/27/16 16/16/11
f 24/28/17 12/29/18 11/30/19 25/31/20
f 13/13/9 12/29/18 24/32/17 14/33/10
f 10/34/21 19/35/13 21/36/13 11/11/21
f 7/37/21 6/38/13 19/39/13 10/34/21
f 6/6/13 3/3/14 2/22/14 19/40/13
f 26/41/12 17/42/12 16/43/12 23/44/12
f 27/45/12 28/46/12 17/47/12 26/41/12
f 28/48/12 29/49/12 18/50/12 17/17/12
f 18/50/22 9/51/7 12/52/7 13/19/22
f 29/53/22 8/54/7 9/55/7 18/50/22
f 8/56/7 7/37/8 10/10/8 9/57/7
f 28/46/23 5/58/3 8/56/6 29/59/24
f 27/60/25 4/61/26 5/62/3 28/63/23
f 4/61/26 3/64/27 6/65/4 5/5/3
f 26/66/28 1/1/1 4/61/1 27/60/28
f 23/44/28 30/67/1 1/68/1 26/69/28
f 30/70/1 20/71/2 2/72/2 1/68/1
f 11/73/19 21/74/29 31/75/29 25/31/20
f 21/76/29 20/77/30 32/78/31 31/79/29
f 20/80/30 30/81/32 33/82/33 32/83/31
f 22/84/15 33/85/33 30/86/32 23/87/16
usemtl steamengine
f 34/88/34 31/89/34 32/90/34 33/91/34
f 15/92/34 34/88/34 33/91/34 22/93/34
f 14/94/34 24/95/34 34/88/34 15/92/34
f 24/95/34 25/96/34 31/89/34 34/88/34
